# This file uses centimeters as units for non-parametric coordinates.

mtllib pyramidBottom.mtl
g default
v -86.819491 -50.768588 -86.819521
v -86.819506 -50.768588 86.819491
v 86.819495 -50.768588 86.819502
v 86.819502 -50.768588 -86.819509
vt 0.500000 0.000000
vt 0.250000 0.250000
vt 0.500000 0.500000
vt 0.750000 0.250000
vn 0.000000 -1.000000 0.000000
vn 0.000000 -1.000000 0.000000
vn 0.000000 -1.000000 0.000000
vn 0.000000 -1.000000 0.000000
s off
g pPyramidbottom
usemtl standardSurface2SG
f 1/1/1 4/4/2 3/3/3 2/2/4
